<?xml version="1.0" encoding="UTF-8"?>
<svg width="2082px" height="371px" viewBox="0 0 2082 371" version="1.1" xmlns="http://www.w3.org/2000/svg" xmlns:xlink="http://www.w3.org/1999/xlink">
    <title>BALLISTiQ</title>
    <g id="Page-1" stroke="none" stroke-width="1" fill="none" fill-rule="evenodd">
        <g id="BALLISTiQ" fill-rule="nonzero">
            <path d="M370.8,203.4 L370.8,207 C370.1,210.3 369.3,213.7 368.6,217 C365,234.8 359.6,252 351.4,268.3 C339.333333,292.233333 322.933333,312.566667 302.2,329.3 C285,343.3 265.7,353.9 244.5,360.9 C233.7,364.6 222.7,368.4 211.2,367.4 C202.6,366.7 193.9,364.4 185.5,362.1 C172.5,358.5 161.2,351.6 150.8,343 C150.6,342.733333 150.366667,342.5 150.1,342.3 C149.766667,342.033333 149.4,341.766667 149,341.5 C148.933333,341.633333 148.833333,341.766667 148.7,341.9 C149.033333,342.166667 149.366667,342.433333 149.7,342.7 C149.9,342.966667 150.1,343.2 150.3,343.4 C150.6,344 150.8,344.8 151.3,345.3 C158.2,352.7 165.7,359.4 174.4,364.7 C177.4,366.5 180.5,368 183.5,369.7 C182.3,370.5 181.3,370.6 180.4,370.5 C171.1,369.6 161.8,368.9 152.6,367.6 C136.7,365.3 121.7,360.1 107.1,353.3 C90.8,345.7 75.9,335.8 62.4,323.8 C51.2,314 41.4,303 32.9,290.9 C20.3,272.8 11.1,253.1 5.7,231.6 C2.6,219.1 -0.4,206.6 2.4,193.4 C6.4,174.3 13.1,156.6 26.4,141.9 C26.6,141.633333 26.8333333,141.366667 27.1,141.1 C27.2333333,140.966667 27.4,140.8 27.6,140.6 C27.3333333,140.6 27.0333333,140.633333 26.7,140.7 C26.5,140.9 26.2666667,141.1 26,141.3 C25.3,141.7 24.4,142 23.9,142.6 C16.3,149.8 8.9,157.3 3.8,166.6 C3,168.1 1.9,169.5 1,170.9 C0.666666667,170.766667 0.333333333,170.633333 0,170.5 C0.8,164.966667 1.63333333,159.4 2.5,153.8 C4.6,138.9 9,124.6 15.1,110.9 C27.8,82.5 46.1,58.2 70.9,39 C86.6,26.7 103.8,17.1 122.6,10.5 C135.2,6.1 147.9,2.5 161.3,2.1 C172.4,1.8 183.3,3.7 193.8,6.8 C205.4,10.2 216.8,14.5 226.5,22.3 C228.3,23.8 230.3,25 233,26.9 C232.6,25.3 232.5,24.9 232.3,24.7 C223.9,15.9 215,7.9 203.9,2.6 C202.9,2.2 202.3,0.9 201.5,0 C202.433333,0 203.4,0 204.4,0 C204.7,0.2 205.1,0.6 205.5,0.7 C210.6,1.4 215.7,1.9 220.8,3 C239.1,6.9 256.7,12.7 273.2,21.7 C295.5,33.6 314.3,49.4 330.2,69 C343.4,85.1 353.8,102.8 360.2,122.5 C364.1,134.2 367.6,146.2 369.1,158.4 C371.5,177.6 366.2,195.9 357.7,213 C354.2,219.9 349.2,226 344.7,232.6 C345.7,232 346.7,231.4 347.5,230.7 C355.6,223.1 362.8,214.7 368.5,205.1 C369,204.4 370,203.9 370.8,203.4 L370.8,203.4 Z M185.2,140.4 C181.9,141 176.8,138.3 175.2,144.4 C175.2,144.7 174.3,144.6 173.9,144.8 C168,147.3 161.9,149.5 157.3,154.4 C156.6,155.2 154.9,155.6 153.8,155.5 C151.3,155.2 149.9,156.5 148.7,158.2 C146.9,160.9 145.2,163.7 143.9,166.7 C143.3,168.1 143.2,170.5 144.1,171.4 C145.8,173.2 144.8,174.7 144.7,176.5 C144.5,181.2 144.4,185.8 144.3,190.5 C144.233333,192.633333 144.133333,194.733333 144,196.8 C143.9,198.6 143.1,200.7 143.6,202.3 C144.4,204.8 145.9,207.1 147.2,209.5 C148.6,212 150.2,214.1 153.6,213.6 C154.3,213.5 155.3,214.2 156,214.7 C161.3,219.3 166.9,223.2 173.8,225.2 C174.6,225.4 175,226.7 175.8,227.3 C177.3,228.3 178.9,229.7 180.6,230 C182.9,230.5 185.4,230 187.8,230.2 C191.4,230.5 194.2,229.8 195.6,226.1 C195.8,225.6 196.8,225.3 197.5,225 C203.1,223 208.5,220.4 213,216.2 C213.7,215.5 215.1,214.9 216,215 C219.2,215.5 221,213.6 222.5,211.4 C223.8,209.5 224.9,207.4 226.1,205.4 C227.7,202.8 228.7,200.3 225.9,197.7 C225.6,197.5 225.6,196.7 225.6,196.2 C225.7,189.8 225.9,183.3 226.1,176.9 C226.1,175.6 226.3,174.1 227,173.2 C228.9,171.1 228.5,169.1 227.4,167 C226.2,164.7 224.9,162.5 223.7,160.2 C222.4,157.6 220.6,156.2 217.6,156.3 C216.4,156.3 215.2,155.5 214.2,154.9 C209.2,151.9 204.2,148.9 199.2,145.8 C197.7,144.8 196.4,143.4 194.9,142.3 C193.8,141.6 192.6,140.7 191.4,140.5 C189.5,140.2 187.5,140.4 185.2,140.4 Z" id="Shape" fill="#FFFFFF"></path>
            <g id="Group" transform="translate(395.000000, 45.000000)">
                <path d="M14.7207921,251 C4.90693069,251 0,246.085546 0,236.256637 L0,27.7433628 C0,17.9144543 4.90693069,13 14.7207921,13 L106.2,13 C124.776238,13 139.058911,17.9144543 149.04802,27.7433628 C159.037129,37.5722714 164.031683,51.6135693 164.031683,69.8672566 L164.031683,79.3451327 C164.031683,95.1415929 159.066337,107.369223 149.135644,116.028024 C167.711881,126.441986 177,145.456244 177,173.070796 L177,185.0059 C177,206.53589 171.304455,222.917404 159.913366,234.150442 C148.522277,245.383481 132.136634,251 110.756436,251 L14.7207921,251 Z M29.4415842,221.513274 L110.756436,221.513274 C123.958416,221.513274 133.392574,218.675762 139.058911,213.000737 C144.725248,207.325713 147.558416,197.9941 147.558416,185.0059 L147.558416,173.070796 C147.558416,160.082596 144.812871,150.809489 139.321782,145.251475 C133.830693,139.693461 124.308911,136.914454 110.756436,136.914454 L29.4415842,136.914454 L29.4415842,221.513274 Z M29.4415842,107.427729 L112.508911,107.427729 C121.037624,107.427729 126.85,104.794985 129.94604,99.5294985 C133.042079,94.2640118 134.590099,87.5358899 134.590099,79.3451327 L134.590099,69.8672566 C134.590099,59.6873156 132.487129,52.5789086 128.281188,48.5420354 C124.075248,44.5051622 116.714851,42.4867257 106.2,42.4867257 L29.4415842,42.4867257 L29.4415842,107.427729 Z" id="Shape" fill="#FFFFFF"></path>
                <path d="M225.010841,249.367679 C215.667389,245.743843 212.864354,239.314455 216.601734,230.079516 L299.992037,24.5728982 C303.495831,16.8576327 308.985109,13 316.45987,13 L317.160628,13 C324.752183,13.3506939 329.891081,17.2083266 332.577323,24.5728982 L417.369143,230.079516 C421.106524,239.314455 418.420281,245.743843 409.310416,249.367679 C400.083758,252.991516 393.660136,250.302863 390.039548,241.30172 L371.119059,195.360821 L261.97587,195.360821 L243.931329,241.30172 C240.310742,250.419761 234.003912,253.108414 225.010841,249.367679 Z M273.538391,165.902534 L359.030969,165.902534 L315.408731,59.6422869 L273.538391,165.902534 Z" id="Shape" fill="#FFFFFF"></path>
                <path d="M484.799007,251 C474.933002,251 470,246.085546 470,236.256637 L470,27.7433628 C470,17.9144543 474.933002,13 484.799007,13 C494.665012,13 499.598015,17.9144543 499.598015,27.7433628 L499.598015,221.513274 L597.200993,221.513274 C607.066998,221.513274 612,226.427729 612,236.256637 C612,246.085546 607.066998,251 597.200993,251 L484.799007,251 Z" id="Path" fill="#FFFFFF"></path>
                <path d="M673.799007,251 C663.933002,251 659,246.085546 659,236.256637 L659,27.7433628 C659,17.9144543 663.933002,13 673.799007,13 C683.665012,13 688.598015,17.9144543 688.598015,27.7433628 L688.598015,221.513274 L786.200993,221.513274 C796.066998,221.513274 801,226.427729 801,236.256637 C801,246.085546 796.066998,251 786.200993,251 L673.799007,251 Z" id="Path" fill="#FFFFFF"></path>
                <path d="M863.5,250 C858.551587,250 854.897817,248.803914 852.53869,246.411743 C850.179563,244.019572 849,240.314623 849,235.296898 L849,27.7031019 C849,22.5686854 850.179563,18.8345643 852.53869,16.5007386 C854.897817,14.1669129 858.551587,13 863.5,13 C868.563492,13 872.246032,14.1669129 874.547619,16.5007386 C876.849206,18.8345643 878,22.5686854 878,27.7031019 L878,235.296898 C878,240.314623 876.849206,244.019572 874.547619,246.411743 C872.246032,248.803914 868.563492,250 863.5,250 Z" id="Path" fill="#FFFFFF"></path>
                <path d="M1010.54595,251 C990.628902,251 975.108743,246.963127 963.985477,238.889381 C952.862211,230.815634 945.90289,218.353982 943.107514,201.504425 C942.641618,196.355949 943.689884,192.494592 946.252312,189.920354 C948.81474,187.346116 952.541908,186.058997 957.433815,186.058997 C962.325723,186.058997 965.907298,187.229105 968.17854,189.569322 C970.449783,191.909538 971.993064,195.536873 972.808382,200.451327 C974.555491,208.525074 978.311777,214.053835 984.07724,217.037611 C989.842702,220.021386 998.665607,221.513274 1010.54595,221.513274 L1060.86272,221.513274 C1075.88786,221.513274 1086.10845,218.792773 1091.52449,213.35177 C1096.94053,207.910767 1099.64855,197.760079 1099.64855,182.899705 C1099.64855,167.80531 1096.85318,157.479105 1091.26243,151.921091 C1085.67168,146.363078 1075.53844,143.584071 1060.86272,143.584071 L1017.53439,143.584071 C995.520809,143.584071 979.185332,138.172321 968.527962,127.34882 C957.870592,116.52532 952.541908,100.056047 952.541908,77.9410029 C952.541908,55.9429695 957.812355,39.6199607 968.353251,28.9719764 C978.894147,18.3239921 995.171387,13 1017.18497,13 L1058.76618,13 C1077.28555,13 1091.81568,16.8028515 1102.35658,24.4085546 C1112.89747,32.0142576 1119.56561,43.6568338 1122.36098,59.3362832 C1123.05983,64.3677483 1122.12803,68.1998525 1119.56561,70.8325959 C1117.00318,73.4653392 1113.15954,74.7817109 1108.03468,74.7817109 C1103.37572,74.7817109 1099.8815,73.5530973 1097.55202,71.0958702 C1095.22254,68.6386431 1093.70838,65.0698132 1093.00954,60.3893805 C1091.14595,53.4857424 1087.5935,48.776057 1082.35217,46.2603245 C1077.11084,43.7445919 1069.24884,42.4867257 1058.76618,42.4867257 L1017.18497,42.4867257 C1003.20809,42.4867257 993.831936,44.9732055 989.056503,49.9461652 C984.281069,54.9191249 981.893353,64.2507375 981.893353,77.9410029 C981.893353,91.7482793 984.339306,101.226155 989.231214,106.374631 C994.123121,111.523107 1003.55751,114.097345 1017.53439,114.097345 L1060.86272,114.097345 C1083.80809,114.097345 1100.90065,119.713864 1112.14039,130.946903 C1123.38013,142.179941 1129,159.497542 1129,182.899705 C1129,206.184857 1123.40925,223.356195 1112.22775,234.413717 C1101.04624,245.471239 1083.92457,251 1060.86272,251 L1010.54595,251 Z" id="Path" fill="#FFFFFF"></path>
                <path d="M1247.5,250 C1242.58993,250 1238.90737,248.774742 1236.45234,246.324225 C1233.9973,243.873708 1232.76978,240.197932 1232.76978,235.296898 L1232.76978,42.4062038 L1164.73022,42.4062038 C1159.82014,42.4062038 1156.13759,41.1809453 1153.68255,38.7304284 C1151.22752,36.2799114 1150,32.6041359 1150,27.7031019 C1150,22.8020679 1151.22752,19.1262925 1153.68255,16.6757755 C1156.13759,14.2252585 1159.82014,13 1164.73022,13 L1330.26978,13 C1335.17986,13 1338.86241,14.2252585 1341.31745,16.6757755 C1343.77248,19.1262925 1345,22.8020679 1345,27.7031019 C1345,32.6041359 1343.77248,36.2799114 1341.31745,38.7304284 C1338.86241,41.1809453 1335.17986,42.4062038 1330.26978,42.4062038 L1262.23022,42.4062038 L1262.23022,235.296898 C1262.23022,239.964549 1260.97347,243.581979 1258.45998,246.149188 C1255.94649,248.716396 1252.29317,250 1247.5,250 Z" id="Path" fill="#FFFFFF"></path>
                <path d="M1401.7418,43.7974772 C1390.5806,43.7974772 1385,38.1688858 1385,26.9117029 L1385,16.5339874 C1385,5.51132913 1390.5806,0 1401.7418,0 L1411.96311,0 C1422.65437,0 1428,5.51132913 1428,16.5339874 L1428,26.9117029 C1428,38.1688858 1422.65437,43.7974772 1411.96311,43.7974772 L1401.7418,43.7974772 Z M1406.67623,251 C1396.80738,251 1391.87295,246.074982 1391.87295,236.224947 L1391.87295,87.419061 C1391.87295,77.5690259 1396.80738,72.6440084 1406.67623,72.6440084 C1416.54508,72.6440084 1421.47951,77.5690259 1421.47951,87.419061 L1421.47951,236.224947 C1421.47951,246.074982 1416.54508,251 1406.67623,251 Z" id="Shape" fill="#068FFF"></path>
                <path d="M1683.40402,258.838968 C1685.85842,261.414357 1687.0564,264.253139 1686.99796,267.355312 C1686.93952,270.457485 1685.39091,273.354798 1682.35213,276.047251 C1676.62519,281.432156 1670.78138,281.315092 1664.82069,275.696061 L1604.51254,211.779582 C1601.94126,209.08713 1600.65562,206.189817 1600.65562,203.087644 C1600.65562,199.98547 1602.05813,197.146689 1604.86316,194.571299 C1610.70698,189.069331 1616.66767,189.186395 1622.74523,194.922489 L1683.40402,258.838968 Z M1564.54085,251.1128 C1537.77619,251.1128 1517.99488,244.703593 1505.19693,231.885178 C1492.39898,219.066763 1486,199.253825 1486,172.446364 L1486,91.3216026 C1486,64.2800153 1492.42819,44.4085459 1505.28458,31.7071943 C1518.14097,19.0058427 1537.89306,12.7722301 1564.54085,13.0063564 L1606.61631,13.0063564 C1633.49785,13.0063564 1653.30838,19.386298 1666.04789,32.1461811 C1678.7874,44.9060643 1685.15716,64.7482679 1685.15716,91.6727921 L1685.15716,172.446364 C1685.15716,199.253825 1678.7874,219.066763 1666.04789,231.885178 C1653.30838,244.703593 1633.49785,251.1128 1606.61631,251.1128 L1564.54085,251.1128 Z M1564.54085,221.612887 L1606.61631,221.612887 C1619.12207,221.612887 1628.93968,220.120332 1636.06913,217.135221 C1643.19858,214.150111 1648.25348,209.08713 1651.23382,201.946278 C1654.21417,194.805426 1655.70434,184.972121 1655.70434,172.446364 L1655.70434,91.6727921 C1655.70434,79.2640983 1654.21417,69.4893254 1651.23382,62.3484734 C1648.25348,55.2076214 1643.19858,50.1153744 1636.06913,47.0717325 C1628.93968,44.0280907 1619.12207,42.5062698 1606.61631,42.5062698 L1564.54085,42.5062698 C1552.15197,42.3892066 1542.3928,43.7939644 1535.26335,46.7205431 C1528.13389,49.6471218 1523.04978,54.6808372 1520.01099,61.8216892 C1516.97221,68.9625413 1515.45282,78.7958457 1515.45282,91.3216026 L1515.45282,172.446364 C1515.45282,184.972121 1516.94299,194.805426 1519.92334,201.946278 C1522.90368,209.08713 1527.95858,214.150111 1535.08803,217.135221 C1542.21748,220.120332 1552.03509,221.612887 1564.54085,221.612887 Z" id="Shape" fill="#FFFFFF"></path>
            </g>
        </g>
    </g>
</svg>